<svg width="134" height="21" viewBox="0 0 134 21" fill="none" xmlns="http://www.w3.org/2000/svg">
<path d="M0.979614 20.4038V0.624569H6.46129L14.373 13.5376H11.4909L19.1765 0.624569H24.6582L24.7147 20.4038H18.6396L18.5831 9.77953H19.5438L14.2882 18.6237H11.3496L5.86791 9.77953H7.05467V20.4038H0.979614ZM34.0421 7.97114H42.858V12.7747H34.0421V7.97114ZM34.4942 15.3742H44.3838V20.4038H27.9388V0.624569H44.0165V5.65415H34.4942V15.3742ZM44.9763 20.4038L53.7922 8.08417L53.7639 12.7464L45.2306 0.624569H52.7184L57.6915 7.97114L54.4986 7.9994L59.3586 0.624569H66.5356L58.0023 12.4921V7.85812L66.9595 20.4038H59.3304L54.3573 12.7182L57.4372 12.6899L52.5772 20.4038H44.9763Z" fill="#5576D9"/>
<path d="M75.4001 20.4038L66.6972 0.624569H69.7489L77.7454 18.878H75.9935L84.0465 0.624569H86.8721L78.1975 20.4038H75.4001ZM89.3944 20.4038V0.624569H92.22V20.4038H89.3944ZM103.906 20.6299C102.399 20.6299 100.958 20.4038 99.5826 19.9517C98.2075 19.4808 97.1244 18.878 96.3332 18.1433L97.3787 15.9394C98.1322 16.5987 99.0929 17.1449 100.261 17.5782C101.429 18.0115 102.644 18.2281 103.906 18.2281C105.055 18.2281 105.987 18.0962 106.703 17.8325C107.419 17.5688 107.946 17.2109 108.286 16.7588C108.625 16.2878 108.794 15.7604 108.794 15.1764C108.794 14.4983 108.568 13.952 108.116 13.5376C107.683 13.1232 107.108 12.7935 106.392 12.5486C105.695 12.2849 104.923 12.0589 104.075 11.8705C103.228 11.6821 102.371 11.4655 101.504 11.2206C100.656 10.9569 99.8746 10.6272 99.1588 10.2316C98.4618 9.83604 97.8967 9.3086 97.4634 8.64929C97.0302 7.97114 96.8135 7.10463 96.8135 6.04973C96.8135 5.03251 97.0773 4.10006 97.6047 3.25238C98.151 2.38586 98.9798 1.6983 100.091 1.18969C101.221 0.662245 102.653 0.398522 104.386 0.398522C105.535 0.398522 106.675 0.549221 107.805 0.850618C108.935 1.15202 109.915 1.58528 110.744 2.1504L109.811 4.41088C108.964 3.84576 108.069 3.44076 107.127 3.19587C106.185 2.93215 105.272 2.80029 104.386 2.80029C103.275 2.80029 102.361 2.94157 101.645 3.22413C100.93 3.50669 100.402 3.88343 100.063 4.35437C99.7428 4.8253 99.5826 5.35275 99.5826 5.93671C99.5826 6.63369 99.7993 7.18939 100.233 7.60382C100.685 8.01824 101.259 8.34789 101.956 8.59278C102.672 8.83766 103.454 9.06371 104.301 9.27092C105.149 9.4593 105.997 9.67593 106.844 9.92081C107.711 10.1657 108.493 10.4859 109.19 10.8815C109.906 11.2771 110.48 11.8045 110.913 12.4639C111.347 13.1232 111.563 13.9708 111.563 15.0069C111.563 16.0053 111.29 16.9377 110.744 17.8043C110.198 18.6519 109.35 19.3395 108.201 19.8669C107.07 20.3756 105.639 20.6299 103.906 20.6299ZM112.696 20.4038L121.653 0.624569H124.451L133.436 20.4038H130.469L122.473 2.20691H123.603L115.606 20.4038H112.696ZM116.511 15.459L117.274 13.1985H128.406L129.226 15.459H116.511Z" fill="#101E46"/>
</svg>
