<svg width="26" height="26" viewBox="0 0 26 26" fill="none" xmlns="http://www.w3.org/2000/svg">
<path d="M13.1673 12.6009C13.1358 12.6009 13.1148 12.6009 13.0833 12.6009C13.0308 12.5904 12.9573 12.5904 12.8943 12.6009C9.8493 12.5064 7.5498 10.1124 7.5498 7.1619C7.5498 4.1589 9.9963 1.7124 12.9993 1.7124C16.0023 1.7124 18.4488 4.1589 18.4488 7.1619C18.4383 10.1124 16.1283 12.5064 13.1988 12.6009C13.1883 12.6009 13.1778 12.6009 13.1673 12.6009ZM12.9993 3.2874C10.8678 3.2874 9.12481 5.0304 9.12481 7.1619C9.12481 9.2619 10.7628 10.9524 12.8523 11.0259C12.9048 11.0154 13.0518 11.0154 13.1883 11.0259C15.2463 10.9314 16.8633 9.2409 16.8738 7.1619C16.8738 5.0304 15.1308 3.2874 12.9993 3.2874Z" fill="white"/>
<path d="M13.178 24.0776C11.12 24.0776 9.05149 23.5526 7.48699 22.5026C6.02749 21.5366 5.22949 20.2136 5.22949 18.7751C5.22949 17.3366 6.02749 16.0031 7.48699 15.0266C10.637 12.9371 15.74 12.9371 18.869 15.0266C20.318 15.9926 21.1265 17.3156 21.1265 18.7541C21.1265 20.1926 20.3285 21.5261 18.869 22.5026C17.294 23.5526 15.236 24.0776 13.178 24.0776ZM8.35849 16.3496C7.35049 17.0216 6.80449 17.8826 6.80449 18.7856C6.80449 19.6781 7.36099 20.5391 8.35849 21.2006C10.973 22.9541 15.383 22.9541 17.9975 21.2006C19.0055 20.5286 19.5515 19.6676 19.5515 18.7646C19.5515 17.8721 18.995 17.0111 17.9975 16.3496C15.383 14.6066 10.973 14.6066 8.35849 16.3496Z" fill="white"/>
</svg>
